<?xml version="1.0" encoding="UTF-8" standalone="no"?>
<!DOCTYPE svg PUBLIC "-//W3C//DTD SVG 1.1//EN" "http://www.w3.org/Graphics/SVG/1.1/DTD/svg11.dtd">
<svg width="100%" height="100%" viewBox="0 0 579 1469" version="1.1" xmlns="http://www.w3.org/2000/svg" xmlns:xlink="http://www.w3.org/1999/xlink" xml:space="preserve" xmlns:serif="http://www.serif.com/" style="fill-rule:evenodd;clip-rule:evenodd;stroke-linejoin:round;stroke-miterlimit:2;">
    <g transform="matrix(1,0,0,1,-1007.245652,-671.672641)">
        <g transform="matrix(0.437681,0,0,0.437681,868.115798,530.43465)">
            <g transform="matrix(1,0,0,1,-1020.732365,0)">
                <path d="M1496.64,3397.73C1480.71,3280.75 1486.7,3169.67 1506.18,3058.21C1496.4,3047.7 1486.16,3037.09 1476.37,3026.07C1465.98,3014.37 1462.49,3001.77 1465.82,2985.27C1474.74,2941.06 1485.88,2897.66 1501.78,2855.42C1504.51,2848.17 1503.75,2839.52 1504.12,2831.5C1504.86,2815.7 1501.89,2798.78 1506.63,2784.36C1513.18,2764.44 1507.82,2744.56 1512.17,2724.96C1526.27,2661.46 1539.47,2597.76 1552.94,2534.12C1554.28,2527.82 1555.96,2521.39 1555.94,2515.03C1555.77,2463.14 1564.27,2412.61 1576.61,2362.31C1599.36,2269.56 1630.25,2179.6 1664.75,2090.7C1668.66,2080.63 1668.43,2068.76 1669.06,2057.66C1670.12,2038.77 1673.21,2021.45 1690.58,2009.56C1694.44,2006.91 1696.72,1999.76 1697.05,1994.51C1702.26,1912.62 1718.67,1832.57 1739.25,1753.53C1743.82,1735.96 1760.41,1721.52 1773.49,1702.74C1773.63,1703.5 1772,1699.92 1772.61,1696.77C1776.19,1678.45 1769.58,1665.2 1754.67,1654.4C1749.87,1650.92 1747.17,1643.9 1744.69,1638.01C1739.42,1625.48 1733.52,1612.96 1730.44,1599.84C1725.96,1580.71 1716.93,1566.58 1698.23,1559C1692.32,1556.61 1687.2,1552.26 1680.62,1548.11C1678.54,1551.74 1676.45,1555.01 1674.74,1558.47C1663.21,1581.78 1651.84,1605.17 1640.25,1628.45C1632.85,1643.32 1621.88,1654.85 1605.95,1660.27C1589.96,1665.71 1584.28,1676.87 1584.47,1692.83C1584.71,1714.16 1582.94,1735.6 1584.5,1756.81C1586.89,1789.37 1578.23,1818.91 1564.02,1847.38C1557.16,1861.13 1549.55,1874.52 1542.44,1888.16C1537.59,1897.46 1531.9,1906.24 1535.77,1918.08C1537.07,1922.07 1534.37,1928.8 1531.36,1932.55C1514.48,1953.49 1513.09,1977.9 1513.69,2003.11C1513.91,2011.95 1512.65,2020.83 1512.07,2029.69C1510.55,2030.07 1509.04,2030.45 1507.52,2030.83C1519.27,2048.47 1530.32,2066.64 1543.02,2083.56C1551.28,2094.571 1553.59,2105.29 1550.26,2118.36C1546.62,2132.67 1545.04,2147.56 1540.67,2161.61C1538.44,2168.8 1533.12,2175.85 1527.38,2180.92C1518.52,2188.73 1509.97,2195.06 1507.43,2208.39C1504.26,2224.97 1480.58,2232.82 1465.71,2224.44C1462,2222.35 1457.49,2220.53 1453.37,2220.57C1444.1,2220.67 1435.58,2219.93 1429.37,2211.97C1428.65,2211.05 1427.68,2209.54 1426.87,2209.57C1408.55,2210.25 1397.36,2196.33 1382.84,2189.13C1362,2178.8 1350.55,2161.27 1341.26,2142.52C1336.91,2133.73 1338.82,2120.78 1340.64,2110.19C1346.03,2078.75 1352.87,2047.56 1358.88,2016.23C1359.49,2013.05 1359.29,2008.98 1357.78,2006.26C1351.69,1995.2 1354.72,1985.8 1358.86,1974.45C1367.69,1950.23 1367.38,1924.52 1362.36,1899.34C1360.49,1889.97 1359.55,1882.71 1367.03,1875.05C1370.49,1871.49 1371.03,1864.5 1371.71,1858.92C1376.24,1821.36 1380.1,1783.73 1384.88,1746.2C1387.89,1722.64 1399.32,1702.63 1413.66,1684.07C1416.78,1680.02 1420.88,1675.05 1420.85,1670.53C1420.68,1642.83 1429.63,1619.51 1451.36,1602.94C1443.63,1571.49 1450.61,1542.29 1457.99,1513.95C1466.46,1481.45 1478.4,1449.8 1489.98,1418.19C1493.55,1408.44 1496.66,1399.59 1494.03,1389.19C1492.74,1384.09 1491.97,1378.46 1492.75,1373.35C1494.42,1362.37 1490.08,1354.4 1483.69,1345.93C1476.69,1336.64 1471.81,1325.76 1465.67,1314.97C1469.79,1309.9 1472.39,1304.95 1476.44,1301.99C1497.92,1286.27 1512.92,1265.32 1526.42,1242.89C1530.35,1236.36 1536.76,1231.34 1540.71,1224.83C1544.47,1218.64 1548.9,1211.37 1548.78,1204.65C1548.56,1191.57 1555.2,1184.47 1565.58,1180.25C1596.24,1167.78 1627.2,1156.07 1657.97,1143.88C1674.91,1137.18 1691.69,1130.08 1708.57,1123.24C1712.41,1121.69 1716.86,1118.51 1720.18,1119.37C1740.65,1124.64 1756.26,1111.13 1774.13,1106.59C1787.26,1103.26 1799.16,1099.64 1809.56,1089.16C1814.69,1083.99 1827.18,1085.27 1836.35,1085.18C1849.78,1085.05 1863.93,1089.08 1874.37,1073.99C1876.06,1053.81 1877.87,1032.18 1879.74,1009.93C1826.86,988.997 1774.18,1003.01 1716.8,1006.37C1735.31,994.271 1750.69,984.218 1768.3,972.709C1711.49,960.791 1655.74,954.578 1599.72,951.803C1611.68,937.075 1648.5,918.818 1722.21,891.602C1641.9,854.087 1559.45,833.345 1471.12,822.831C1504.52,782.243 1545.92,758.521 1591.96,742.082C1638.58,725.431 1686.66,722.428 1735.79,728.868C1685.12,700.123 1628.79,693.071 1572.36,686.283C1628.04,684.18 1680.99,695.317 1734.1,720.917C1677.74,629.679 1599.83,563.504 1518.83,493.872C1544.89,488.332 1566.92,482.68 1589.28,479.092C1637.59,471.344 1686.42,470.353 1734.41,479.198C1756.52,483.273 1778.3,493.533 1798.1,504.746C1838.01,527.338 1872.48,557.293 1904.74,594.173C1920.44,547.641 1926.16,502.166 1925.7,455.49C1925.24,408.508 1912.41,364.901 1891.87,322.696C1934.79,345.86 1970.91,376.424 2000.94,414.145C2024.56,443.815 2042.51,476.052 2044.82,515.056C2045.58,527.803 2046.53,540.539 2048.36,553.326C2071,493.364 2082.52,432.343 2066.51,368.555C2092.98,442.743 2068.54,512.285 2046.26,583.376C2121.37,595.287 2175.72,634.174 2204.95,706.366C2258.06,685.765 2310.89,664.886 2368.9,664.593C2354.7,667.442 2340.46,670.052 2326.33,673.206C2311.53,676.511 2296.85,680.34 2282.38,685.381C2347.63,682.224 2410.76,693.365 2476.51,708.01C2425.09,725.298 2376.6,741.606 2328.1,757.914C2328.29,759.287 2328.48,760.66 2328.67,762.032C2394.38,762.178 2457.95,774.579 2520.7,793.765C2426.79,829.088 2335.96,869.658 2250.96,923.306C2290.28,927.729 2325.62,941.423 2360.14,959.104C2276.65,971.795 2193.96,986.578 2113.88,1012.54C2103.07,1039.19 2113.95,1069.33 2139.34,1081.05C2144.11,1083.26 2150.84,1082.1 2156.5,1081.33C2171.36,1079.3 2185.83,1076.76 2197.82,1089.9C2200.58,1092.93 2206.51,1093.05 2210.95,1094.58C2215.96,1096.3 2222.49,1096.67 2225.68,1100.11C2245.7,1121.7 2274.29,1122.82 2299.39,1132.11C2331.51,1144.01 2363.59,1156.03 2395.98,1167.14C2426.27,1177.53 2445.05,1202.43 2467.97,1222.16C2469.28,1223.29 2470.51,1224.83 2471.09,1226.43C2479.24,1248.88 2493.61,1265.56 2514.23,1278.06C2520,1281.57 2521.63,1291.89 2525.24,1299.23C2519.11,1305.86 2514.86,1311.71 2509.44,1316.09C2495.48,1327.35 2494.22,1343.72 2491.9,1359.29C2491.15,1364.32 2495.15,1370.26 2497.56,1375.52C2515.69,1415.28 2535.08,1454.52 2551.61,1494.93C2557.41,1509.08 2557.89,1526.07 2557.79,1541.74C2557.72,1552.02 2559.82,1559.67 2565.96,1567.53C2573.93,1577.74 2585.62,1588.15 2587.19,1599.64C2591.25,1629.21 2612.49,1650.28 2620.74,1676.79C2629.27,1704.21 2634.49,1733.24 2636.65,1761.9C2639.3,1797.17 2637.28,1832.8 2637.28,1869.52C2649.68,1877.52 2650.06,1890.08 2648.83,1904.6C2647.09,1925.2 2647.84,1946.02 2647.9,1966.75C2647.92,1970.7 2648.69,1975.31 2650.8,1978.48C2658.35,1989.83 2656.99,1999.62 2646.65,2008.24C2650.95,2035.01 2655.96,2061.14 2659.05,2087.51C2660.75,2102.04 2659.13,2116.96 2659.17,2131.7C2659.19,2139.35 2658.13,2147.39 2660.1,2154.55C2664.03,2168.79 2658.61,2178.08 2648.35,2187.18C2638.83,2195.62 2629.85,2205.05 2622.37,2215.31C2612.56,2228.77 2601.62,2235.98 2584.75,2229.65C2570.51,2224.3 2556.3,2218.82 2541.85,2214.09C2532.91,2211.16 2523.62,2209.17 2514.36,2207.41C2504.47,2205.53 2501.09,2199.68 2500.17,2190.08C2498.24,2170.14 2495.6,2150.24 2492.52,2130.44C2490.56,2117.82 2491.65,2106.8 2497.3,2094.581C2506.34,2075 2511.87,2053.81 2518.95,2033.1C2507.58,2024.98 2505.66,2016.77 2508.44,2005.62C2510.28,1998.23 2507.93,1989.52 2506.34,1981.62C2504.47,1972.37 2501.8,1963.22 2498.73,1954.29C2495.65,1945.33 2491.66,1936.68 2488.06,1927.9C2486.8,1928.18 2485.54,1928.47 2484.28,1928.76C2485.6,1922.51 2486.91,1916.26 2488.54,1908.51C2483.14,1900.68 2477.31,1891.87 2471.12,1883.3C2434.58,1832.71 2417.68,1777.2 2426.15,1714.36C2427.97,1700.86 2425.44,1686.31 2422.51,1672.76C2419.19,1657.43 2410.14,1646.11 2395.41,1637.82C2385.15,1632.04 2376.52,1621.56 2369.94,1611.39C2353.63,1586.17 2338.91,1559.92 2323.08,1533.27C2312.64,1541.46 2301.71,1550.05 2289.45,1559.69C2289.45,1572.59 2288.68,1586.19 2289.65,1599.65C2290.72,1614.54 2284.51,1624.82 2272.44,1632.14C2261.86,1638.54 2250.98,1644.43 2239.46,1650.99C2238.41,1654.41 2237.69,1659.21 2235.53,1663.24C2232.69,1668.55 2225.6,1673.5 2225.97,1678.16C2226.53,1685.21 2230.24,1694.01 2235.62,1698.31C2257.38,1715.7 2263.05,1740.05 2268.38,1765.19C2284.84,1842.71 2301.78,1920.13 2318.32,1997.63C2320.16,2006.25 2320.62,2015.17 2321.85,2024.93C2323.12,2026.3 2324.82,2028.9 2327.17,2030.58C2349.01,2046.16 2353.33,2066.38 2346.01,2091.54C2343.22,2101.11 2343.73,2112.73 2346.16,2122.57C2365.9,2202.41 2385.91,2282.19 2406.99,2361.69C2417.29,2400.56 2418.3,2440.15 2419.29,2479.71C2419.84,2501.83 2422.29,2522.96 2428.74,2544.21C2440.45,2582.78 2452.42,2622.39 2447.05,2662.75C2442.44,2697.41 2453.26,2731.02 2448.31,2765.26C2447.4,2771.55 2451.83,2778.75 2454.3,2785.34C2464.86,2813.56 2476.37,2841.46 2486.08,2869.96C2494.63,2895.07 2493.7,2921.22 2491.13,2947.4C2490.07,2958.26 2490.75,2969.44 2491.98,2980.33C2493.17,2990.86 2495.82,3001.27 2498.31,3011.62C2502,3026.99 2499.2,3041.39 2490.36,3053.92C2483.4,3063.79 2481.9,3074.02 2482.01,3085.58C2482.84,3170.23 2483.65,3254.88 2483.61,3339.54C2483.6,3360.34 2480.32,3381.14 2478.9,3401.97C2478.64,3405.78 2479.51,3409.97 2480.96,3413.54C2486.3,3426.68 2492.79,3439.39 2497.61,3452.72C2507.35,3479.7 2527.33,3499.22 2544.8,3520.77C2557.01,3535.82 2568.29,3551.9 2577.92,3568.71C2588.58,3587.32 2588.57,3608.46 2586.51,3629.35C2584.01,3654.51 2566.82,3666.89 2544.87,3671.98C2492.4,3684.15 2442.52,3676.06 2400.73,3641.46C2366.17,3612.85 2334.96,3580.16 2302.83,3548.7C2298.16,3544.13 2294.84,3536.61 2293.94,3530.04C2289.81,3500.16 2285.47,3470.2 2283.79,3440.12C2282.67,3420.03 2278.94,3402.16 2265.41,3386.8C2262.85,3383.88 2261.81,3379.36 2260.77,3375.4C2236.83,3283.8 2212.75,3192.23 2189.43,3100.47C2186.89,3090.46 2183.78,3082.99 2174.06,3078.75C2137.39,3062.78 2122.27,3035.16 2126.51,2995.11C2129.68,2965.11 2129.56,2934.78 2131.47,2904.62C2132.39,2890.16 2128.78,2877.24 2124.56,2863.41C2114.52,2830.5 2106.16,2796.85 2100.49,2762.93C2097.91,2747.49 2095.889,2733.68 2086.2,2720.63C2055.78,2679.64 2045.89,2630.25 2032.82,2582.47C2010.13,2499.56 2005.59,2414.38 2003.86,2328.98C2003.69,2320.73 2003.83,2312.48 2000.9,2303.89C1997.31,2326.39 1994.01,2348.94 1990.1,2371.38C1977.18,2445.48 1962.68,2519.2 1936.26,2589.98C1935.64,2591.64 1935.23,2593.43 1934.32,2594.93C1914.83,2627.2 1914.01,2663.34 1911.77,2699.42C1910.38,2721.82 1909.87,2745.14 1903.04,2766.12C1895.48,2789.37 1886.51,2812.06 1880.91,2836.07C1878.76,2845.31 1870.72,2853.18 1866.69,2859.58C1869.31,2870.62 1873.14,2879.52 1873.26,2888.48C1873.75,2924.57 1873.62,2960.69 1872.41,2996.76C1872.19,3003.48 1867.4,3011.47 1862.3,3016.34C1848.61,3029.39 1833.36,3040.79 1819.28,3053.44C1814.78,3057.48 1810.09,3062.92 1808.69,3068.53C1788.87,3147.74 1769.58,3227.1 1750.21,3306.43C1747.41,3317.93 1744.01,3329.38 1742.39,3341.06C1740.49,3354.76 1735.05,3365.86 1725.84,3372.32C1707.05,3416.97 1719.66,3462.19 1713.43,3505.94C1711.81,3517.27 1708.5,3525.12 1698.72,3529.93C1677.02,3540.62 1655.11,3550.87 1633.4,3561.53C1623.91,3566.19 1614.15,3570.61 1605.47,3576.54C1588.85,3587.88 1572.73,3599.98 1556.74,3612.21C1514.22,3644.73 1464.63,3653.55 1412.97,3655.72C1392.62,3656.57 1376.1,3648.76 1362.83,3633.62C1354.67,3624.31 1351.2,3613.89 1351.76,3601.07C1353.92,3551.86 1380.38,3516.02 1413.6,3483.11C1442.54,3454.43 1470.47,3424.72 1496.64,3397.73Z" style="fill-rule:nonzero;"/>
            </g>
        </g>
    </g>
</svg>
